<svg width="175" height="365" viewBox="0 0 175 365" fill="none" xmlns="http://www.w3.org/2000/svg">
<path d="M163 104.5L161.518 104.268L163 104.5ZM10 159.5L11.4679 159.809L10 159.5ZM33.8182 350.924C34.3284 351.576 35.2711 351.692 35.9238 351.182L46.56 342.868C47.2127 342.358 47.3282 341.415 46.818 340.762C46.3078 340.11 45.3651 339.994 44.7124 340.504L35.258 347.894L27.8679 338.44C27.3577 337.787 26.415 337.672 25.7623 338.182C25.1096 338.692 24.9941 339.635 25.5043 340.288L33.8182 350.924ZM10.248 6.97935C38.9499 2.16805 80.8882 1.35353 113.57 14.3686C129.883 20.8648 143.8 30.7695 152.674 45.2554C161.539 59.7271 165.475 78.9421 161.518 104.268L164.482 104.732C168.525 78.8579 164.544 58.8896 155.232 43.6883C145.929 28.5013 131.409 18.2436 114.68 11.5814C81.2784 -1.72022 38.7168 -0.834736 9.75201 4.02063L10.248 6.97935ZM161.518 104.268C159.028 120.202 155.381 130.031 151.004 135.567C148.838 138.306 146.517 139.965 144.082 140.825C141.642 141.686 138.979 141.783 136.073 141.222C130.197 140.089 123.544 136.311 116.291 131.181C109.046 126.057 101.463 119.782 93.6008 113.748C85.7925 107.754 77.7622 102.043 69.8235 98.2491C61.8885 94.4572 53.873 92.4977 46.1602 94.2481C38.4044 96.0083 31.2648 101.447 24.9529 111.792C18.6552 122.114 13.1108 137.427 8.53213 159.191L11.4679 159.809C16.0142 138.198 21.4698 123.261 27.5139 113.354C33.5438 103.471 40.0878 98.7026 46.8242 97.1737C53.6036 95.6351 60.8888 97.3045 68.53 100.956C76.1674 104.606 83.9888 110.152 91.7742 116.127C99.5056 122.062 107.258 128.467 114.559 133.63C121.85 138.787 128.952 142.904 135.505 144.168C138.814 144.807 142.034 144.729 145.081 143.654C148.132 142.576 150.899 140.537 153.357 137.427C158.229 131.266 161.972 120.798 164.482 104.732L161.518 104.268ZM8.53213 159.191C3.96806 180.886 1.53299 195.894 0.948834 205.906C0.657167 210.905 0.819795 214.756 1.45518 217.609C2.08797 220.45 3.2494 222.552 5.16769 223.653C7.07757 224.748 9.33739 224.619 11.6174 223.953C13.9122 223.283 16.4976 221.991 19.285 220.38C22.0844 218.761 25.1837 216.762 28.5028 214.63C31.8339 212.491 35.4055 210.206 39.1968 207.981C54.4159 199.049 72.7875 191.319 92.1292 197.973C111.496 204.635 132.399 225.916 152.102 276.544L154.898 275.456C135.101 224.584 113.754 202.24 93.1051 195.136C72.4312 188.024 53.0216 196.389 37.6782 205.394C33.8289 207.653 30.211 209.968 26.8817 212.106C23.5405 214.252 20.5084 216.207 17.7833 217.783C15.0463 219.365 12.7142 220.508 10.7764 221.073C8.82374 221.644 7.53571 221.553 6.66043 221.05C5.79357 220.553 4.93253 219.422 4.38344 216.957C3.83694 214.503 3.65826 210.973 3.94374 206.081C4.51388 196.309 6.90693 181.489 11.4679 159.809L8.53213 159.191ZM152.102 276.544C161.966 301.89 167.676 320.381 170.128 333.554C171.354 340.14 171.754 345.338 171.475 349.366C171.195 353.402 170.243 356.148 168.875 357.953C166.253 361.413 161.492 362.08 154.388 360.275C147.372 358.492 138.741 354.452 129.252 349.543C119.841 344.675 109.545 338.929 99.4835 333.943C89.398 328.945 79.3467 324.603 70.2371 322.492C61.1526 320.387 52.7233 320.435 46.1216 324.592C39.4821 328.773 35.1009 336.845 33.5111 349.818L36.4889 350.182C38.0241 337.655 42.1585 330.633 47.7202 327.131C53.3197 323.604 60.777 323.379 69.5598 325.414C78.3174 327.444 88.1138 331.657 98.1513 336.631C108.213 341.617 118.315 347.263 127.873 352.207C137.352 357.111 146.261 361.305 153.649 363.182C160.949 365.037 167.458 364.79 171.266 359.765C173.112 357.329 174.165 353.94 174.467 349.574C174.77 345.2 174.329 339.729 173.077 333.005C170.574 319.557 164.784 300.86 154.898 275.456L152.102 276.544Z" fill="#09F069"/>
</svg>
