<svg width="105" height="21" viewBox="0 0 105 21" fill="none" xmlns="http://www.w3.org/2000/svg">
<path d="M4.8692 5.143C6.1572 4.959 7.4452 4.798 8.7102 4.591C8.9862 4.545 9.4462 4.361 9.4462 4.246C9.4232 3.74 9.8832 3.717 10.0902 3.464C10.2282 3.303 10.3662 3.05 10.3202 2.866C10.2742 2.705 10.0442 2.567 9.8602 2.429C9.7682 2.383 9.6302 2.383 9.5152 2.406C7.1232 2.429 4.7542 2.705 2.4542 3.372C2.1092 3.464 1.7642 3.579 1.5112 3.809C1.3042 3.993 1.1432 4.361 1.1892 4.614C1.1892 4.821 1.5112 5.074 1.7412 5.166C2.0402 5.281 2.4082 5.258 2.7762 5.304C2.7072 6.339 2.6612 7.282 2.5922 8.225C2.5692 8.34 2.4772 8.501 2.3622 8.547C1.9482 8.731 2.0862 9.122 2.0862 9.375C1.6952 9.582 1.3502 9.743 1.0512 9.973C0.890195 10.111 0.821195 10.387 0.706195 10.594C0.936195 10.709 1.1432 10.87 1.3502 10.893C1.7182 10.916 2.0862 10.847 2.5002 10.824C2.5462 11.767 2.5922 12.641 2.6382 13.492C2.2702 13.584 2.0172 13.63 1.7642 13.722C0.982195 13.998 0.913195 14.32 1.5112 15.01C1.4422 15.056 1.3962 15.125 1.3272 15.194C0.936195 15.723 1.0512 16.045 1.6722 16.16C2.0402 16.206 2.4082 16.206 2.7992 16.16C3.9492 15.999 5.1222 15.769 6.2722 15.585C7.0772 15.47 7.7442 15.148 8.2272 14.458C8.4802 14.067 8.4802 13.837 8.0662 13.63C7.8132 13.538 7.5602 13.469 7.3072 13.469C6.1572 13.4 5.0302 13.354 3.7652 13.308C3.8112 12.434 3.8572 11.56 3.9032 10.686C5.0992 10.318 6.3412 10.502 7.4222 9.904C6.8932 8.547 6.8932 8.547 5.6052 8.363C5.0762 8.294 4.5472 8.248 3.9262 8.179C3.9722 7.236 4.0182 6.27 4.0412 5.258C4.3632 5.212 4.6162 5.189 4.8692 5.143ZM17.2543 3.142C16.8633 5.649 16.4493 8.179 16.0583 10.686C16.0353 10.87 15.9663 11.031 15.8973 11.376C15.7133 10.939 15.5983 10.663 15.4603 10.387C14.9313 9.191 14.3793 7.995 13.8503 6.822C13.4593 5.971 12.7923 5.258 12.8153 4.246C12.8153 3.763 12.4703 3.602 12.0333 3.763C11.8033 3.855 11.6883 3.832 11.5043 3.717C11.2513 3.556 11.0213 3.694 10.9063 3.947C10.8143 4.177 10.7453 4.43 10.6993 4.66C9.98634 8.087 9.61834 11.56 9.36534 15.056C9.34234 15.424 9.34234 15.792 9.34234 16.16C9.34234 17.011 10.1013 16.643 10.4923 16.873C10.7913 17.034 11.0903 16.988 11.2973 16.712C11.3893 16.597 11.4353 16.459 11.4583 16.298C11.5273 15.976 11.5503 15.677 11.5963 15.355C11.8953 12.94 12.2173 10.525 12.5163 8.133C12.5393 7.995 12.6083 7.88 12.7003 7.696C13.3903 9.49 14.0573 11.192 14.7243 12.894C15.2073 14.136 15.6903 15.378 16.1733 16.643C16.2883 16.942 16.5183 17.126 16.8403 17.126C17.2083 17.126 17.4383 16.919 17.5533 16.574C17.6223 16.344 17.6683 16.091 17.7143 15.838C18.2663 12.986 18.7953 10.111 19.3933 7.236C19.6463 5.902 20.0143 4.591 20.3133 3.257C20.3823 2.958 20.4053 2.59 20.2903 2.337C20.1523 2.107 19.8073 1.969 19.6003 1.831C19.4853 1.624 19.4163 1.371 19.2553 1.302C18.9793 1.21 18.7953 1.44 18.7033 1.67C18.5883 1.9 18.4963 2.13 18.4043 2.337C17.5303 2.314 17.3463 2.429 17.2543 3.142ZM15.7823 12.733L15.6213 12.802L14.8623 10.571L15.0003 10.525C15.2763 11.261 15.8513 11.882 15.7823 12.733ZM28.1624 5.718C26.8744 7.903 25.6324 10.111 24.2984 12.273C23.4244 13.653 22.4584 14.964 21.9294 16.528L22.5044 16.873C22.1134 17.057 21.8374 17.172 21.5614 17.333C20.8024 17.77 20.0204 18.184 19.2614 18.667C19.0774 18.782 18.9164 19.127 18.9624 19.288C19.0314 19.61 19.3764 19.541 19.6294 19.472C20.0894 19.357 20.5724 19.196 21.0324 19.081C21.4234 19.748 21.4464 19.771 22.1824 19.564C22.2974 19.541 22.4124 19.518 22.5274 19.472C25.2414 18.575 28.0704 18.253 30.9224 17.977C31.2904 17.954 31.6584 17.977 31.9114 17.54L31.4744 16.942C31.7734 16.827 32.0954 16.827 32.3024 16.666C32.6474 16.39 32.2564 16.091 32.2104 15.815C32.2104 15.769 32.2104 15.746 32.2334 15.723C32.3484 15.355 32.4174 14.941 32.0034 14.734C31.7044 14.55 31.3134 14.435 30.9684 14.412C29.4044 14.366 27.8634 14.389 26.2994 14.343C25.8624 14.343 25.4484 14.228 24.9194 14.136C25.1724 13.768 25.3564 13.515 25.5174 13.239C27.3574 10.594 29.1974 7.949 31.0144 5.281C31.2674 4.936 31.4974 4.568 31.7044 4.177C32.2104 3.211 31.7734 2.521 30.6924 2.567C30.3474 2.59 30.0024 2.659 29.6574 2.705C28.3924 2.912 27.1044 3.165 25.8164 3.326C24.3214 3.51 22.7804 3.625 21.2854 3.809C21.0554 3.855 20.7794 3.993 20.6644 4.177C20.5264 4.43 20.7334 4.66 20.9634 4.821C21.0324 4.867 21.1244 4.936 21.1934 5.005L20.2504 5.649C20.5724 5.833 20.7794 5.925 20.9174 5.994C20.8944 6.224 20.8484 6.454 20.8024 6.776C21.2394 6.799 21.6304 6.868 21.9754 6.822C23.1024 6.615 24.2294 6.385 25.3564 6.132C26.2994 5.925 27.2424 5.649 28.2314 5.396C28.1854 5.557 28.1854 5.649 28.1624 5.718ZM23.7234 15.93L24.4824 14.711C25.0344 14.78 25.4944 14.849 25.9774 14.872C26.4604 14.895 26.9434 14.872 27.5644 14.872C26.3914 15.585 24.6204 16.068 23.7234 15.93ZM38.7385 4.499C37.3585 3.349 35.4265 3.349 34.2765 4.568C33.6095 5.235 33.1035 6.063 32.9195 7.029C32.5285 8.961 33.1725 10.594 34.5525 11.951C35.9095 13.308 37.6805 13.216 38.9225 11.744C39.8425 10.686 40.2335 9.421 40.2565 8.133C40.2565 6.569 39.7045 5.327 38.7385 4.499ZM37.0365 9.076C36.4155 8.57 36.3925 7.926 36.9905 7.029C37.6345 7.627 37.6575 8.271 37.0365 9.076ZM35.8175 9.007C35.4495 8.087 35.5185 7.351 36.1395 6.684C36.0475 7.42 35.9325 8.156 35.8175 9.007ZM37.4505 6.5C38.0025 6.5 38.0025 6.5 38.0945 7.282L37.4505 6.5ZM52.4688 7.282C52.2158 7.351 52.0088 7.42 51.7788 7.466C51.0658 7.65 50.3298 7.788 49.6168 7.995C49.1108 8.156 49.0878 8.363 49.2948 8.846C49.4788 9.237 49.7548 9.398 50.1688 9.375C50.9968 9.352 51.8248 9.375 52.6988 9.375C52.7448 9.605 52.7908 9.835 52.8368 10.088C53.2278 12.503 53.5958 14.918 54.0098 17.333C54.1018 17.885 54.3088 18.115 54.6768 18.069C55.0448 18.046 55.2058 17.724 55.1368 17.126C55.1368 17.08 55.1138 17.011 55.1138 16.965C54.8838 15.056 54.6538 13.124 54.4238 11.215C54.3548 10.548 54.3088 9.858 54.2398 9.214C54.3778 9.145 54.4238 9.099 54.4698 9.099C55.4588 8.915 56.4478 8.754 56.9998 7.742C57.0228 7.673 57.1148 7.627 57.1838 7.581C56.3098 6.868 56.2868 6.845 55.1828 6.937C54.8148 6.96 54.4468 6.983 54.0098 7.029C53.8258 5.994 53.6648 4.982 53.5038 3.97C55.2058 3.625 56.8388 3.28 58.4718 2.958C58.9318 2.866 59.4378 2.843 59.9208 2.751C60.2658 2.682 60.5648 2.475 60.6108 2.061C60.6338 1.716 60.4498 1.486 60.1278 1.325C59.9898 1.256 59.8058 1.164 59.7368 1.026C59.4838 0.634999 59.1158 0.566 58.7018 0.566C57.9198 0.566 57.1378 0.519999 56.3558 0.588999C54.2858 0.726999 52.2388 0.888 50.1688 1.049C49.8468 1.095 49.5478 1.164 49.2488 1.302C49.1108 1.371 48.9268 1.601 48.9268 1.739C48.9268 1.877 49.1108 2.084 49.2718 2.153C49.7778 2.383 50.2838 2.567 50.8128 2.751C50.7668 2.797 50.7438 2.866 50.6978 2.889C50.3758 3.073 50.1688 3.326 50.3298 3.74C50.4678 4.108 50.8128 4.177 51.1808 4.177C51.5028 4.154 51.8018 4.154 52.1928 4.154C52.2848 5.189 52.3768 6.224 52.4688 7.282ZM66.4884 14.044C66.3044 12.779 66.1204 11.537 65.8444 10.295C65.3614 8.317 64.8324 6.339 64.2804 4.384C64.1424 3.855 63.9124 3.349 63.6134 2.889C63.1534 2.245 62.4404 2.268 61.9344 2.866C61.7274 3.119 61.5664 3.395 61.4514 3.671C59.6114 7.719 57.9094 11.813 56.4374 15.976C56.3454 16.252 56.3454 16.574 56.3224 16.804C56.7594 16.965 57.1044 17.103 57.4494 17.218C57.6334 17.287 57.8404 17.31 58.0244 17.31C58.5764 17.31 59.1284 17.31 59.6804 17.241C61.7964 16.919 63.9354 16.597 66.0744 16.252C66.5114 16.183 66.9254 16.022 67.3624 15.884C67.2934 15.746 67.2704 15.677 67.2474 15.654C66.9714 15.539 66.7184 15.447 66.5114 15.355C66.5114 14.895 66.5574 14.458 66.4884 14.044ZM59.9794 13.722C60.6004 13.055 61.0374 12.273 61.3824 11.445C61.8884 10.272 62.3944 9.076 62.9004 7.88C62.9924 7.65 63.1074 7.42 63.2684 7.029C63.9584 9.536 64.6024 11.905 65.2464 14.297L59.2894 14.872C59.5654 14.389 59.7034 13.998 59.9794 13.722ZM63.1534 15.585C63.9584 15.401 64.7634 15.01 65.5914 15.079C65.5914 15.171 65.5914 15.286 65.5914 15.378L63.1534 15.585ZM73.468 10.019C73.905 9.283 74.411 8.57 74.802 7.811C75.101 7.19 75.354 6.523 75.446 5.856C75.561 5.028 75.055 4.43 74.25 4.2C73.974 4.131 73.698 4.085 73.399 4.062C72.801 4.039 72.18 3.993 71.582 3.97C70.777 3.947 70.708 3.855 70.639 3.073C70.57 2.245 70.501 1.417 70.432 0.588999L69.558 0.496999V3.05H69.489C69.397 2.636 69.282 2.199 69.19 1.785L69.006 1.808C69.098 2.521 69.167 3.234 69.236 3.878C68.385 4.062 67.649 4.223 66.913 4.453C66.545 4.545 66.338 4.844 66.384 5.258C66.43 5.58 66.683 5.856 67.028 5.879C67.603 5.971 68.224 6.017 68.822 6.063C69.098 6.086 69.374 6.063 69.696 6.063C70.501 10.571 70.731 15.102 71.904 19.495C72.847 18.897 72.87 18.115 72.755 17.218C72.548 15.7 72.456 14.182 72.318 12.664C72.295 12.48 72.318 12.296 72.318 12.043C72.502 12.135 72.594 12.181 72.686 12.227C74.756 13.331 76.803 14.458 78.85 15.539C79.609 15.953 80.483 16.16 81.334 16.114C81.61 14.803 80.759 14.343 79.816 13.952C79.609 13.86 79.402 13.768 79.195 13.676C77.562 12.94 75.929 12.181 74.319 11.422C73.905 11.238 73.537 10.962 73.123 10.732C73.261 10.433 73.353 10.226 73.468 10.019ZM73.1 5.672C73.445 6.477 72.962 8.156 71.973 9.536C71.812 8.271 71.651 7.121 71.49 5.833L73.1 5.672ZM78.3867 17.701C79.5597 17.356 80.7557 17.034 81.9287 16.666C82.6647 16.436 83.3547 16.114 84.0907 15.815C84.1367 15.792 84.1597 15.677 84.2517 15.562L83.4467 15.493C83.6537 14.918 83.1017 14.941 82.8257 14.757C82.9637 14.573 83.0787 14.435 83.2857 14.205H82.2047C82.1357 13.446 82.0897 12.779 82.0207 12.089C81.9517 11.606 81.8137 11.123 81.8137 10.663C81.8367 8.731 81.9057 6.799 81.9517 4.867C81.9747 4.131 81.9747 4.085 82.7337 3.901C82.9177 3.878 83.0787 3.878 83.2397 3.832C83.7687 3.671 84.2977 3.533 84.8037 3.326C85.1257 3.188 85.4017 2.958 85.2407 2.521C85.1947 2.498 85.1257 2.452 85.0797 2.452C84.8037 2.452 84.5047 2.452 84.2287 2.452C83.6997 1.854 83.6077 1.785 83.0787 1.923C82.0897 2.222 81.1007 2.544 80.1347 2.889C79.6517 3.073 79.4447 3.533 79.5367 4.085C79.6057 4.66 80.0427 4.499 80.4107 4.545C80.4567 4.568 80.4797 4.614 80.5947 4.683C80.3647 8.064 80.1347 11.514 79.8817 14.987C79.6747 15.102 79.3987 15.194 79.1687 15.332C78.8697 15.516 78.6397 15.769 78.7777 16.114C78.8697 16.344 79.1227 16.528 79.3067 16.735L78.2717 17.425L78.3867 17.701ZM94.0704 14.044C93.8864 12.779 93.7024 11.537 93.4264 10.295C92.9434 8.317 92.4144 6.339 91.8624 4.384C91.7244 3.855 91.4944 3.349 91.1954 2.889C90.7354 2.245 90.0224 2.268 89.5164 2.866C89.3094 3.119 89.1484 3.395 89.0334 3.671C87.1934 7.719 85.4914 11.813 84.0194 15.976C83.9274 16.252 83.9274 16.574 83.9044 16.804C84.3414 16.965 84.6864 17.103 85.0314 17.218C85.2154 17.287 85.4224 17.31 85.6064 17.31C86.1584 17.31 86.7104 17.31 87.2624 17.241C89.3784 16.919 91.5174 16.597 93.6564 16.252C94.0934 16.183 94.5074 16.022 94.9444 15.884C94.8754 15.746 94.8524 15.677 94.8294 15.654C94.5534 15.539 94.3004 15.447 94.0934 15.355C94.0934 14.895 94.1394 14.458 94.0704 14.044ZM87.5614 13.722C88.1824 13.055 88.6194 12.273 88.9644 11.445C89.4704 10.272 89.9764 9.076 90.4824 7.88C90.5744 7.65 90.6894 7.42 90.8504 7.029C91.5404 9.536 92.1844 11.905 92.8284 14.297L86.8714 14.872C87.1474 14.389 87.2854 13.998 87.5614 13.722ZM90.7354 15.585C91.5404 15.401 92.3454 15.01 93.1734 15.079C93.1734 15.171 93.1734 15.286 93.1734 15.378L90.7354 15.585ZM95.3828 19.495C95.3138 20.323 95.7048 20.599 96.4638 20.254C96.6938 20.139 96.9008 19.978 97.0848 19.794C97.5448 19.334 98.0278 18.874 98.4418 18.345C99.8678 16.505 101.294 14.665 102.697 12.802C102.996 12.388 103.318 11.951 103.548 11.491C104.077 10.502 103.755 9.697 102.674 9.329C102.007 9.122 101.317 9.007 100.65 8.823C100.029 8.662 99.3848 8.501 98.6488 8.317C98.9248 7.972 99.1088 7.719 99.3158 7.489C100.259 6.362 101.225 5.258 102.168 4.154C102.605 3.648 102.996 3.119 103.387 2.567C103.571 2.291 103.801 1.992 103.502 1.601C102.881 1.716 102.352 2.038 101.846 2.429C100.926 3.211 99.9598 3.947 99.0398 4.752C98.0968 5.534 97.1768 6.362 96.2568 7.213C95.7968 7.627 95.3828 8.11 94.9918 8.616C94.3018 9.559 94.4858 10.295 95.5668 10.755C96.3718 11.123 97.2228 11.353 98.0968 11.606C98.6488 11.767 99.2468 11.836 99.8448 11.974C99.8218 12.066 99.8218 12.135 99.7758 12.181C99.6378 12.365 99.4768 12.526 99.3388 12.71C97.8208 14.412 96.2798 16.068 95.1068 18.046C94.8768 18.391 94.5548 18.713 94.6468 19.265L95.3598 19.311C95.3828 19.38 95.3828 19.426 95.3828 19.495ZM95.8658 9.536L96.5328 8.8L97.6828 10.157L95.8658 9.536ZM103.116 15.677C102.564 15.815 102.196 16.068 102.081 16.643C101.989 17.195 102.219 17.609 102.725 17.908C102.886 18 102.932 18.253 103.047 18.437C103.162 18.368 103.3 18.161 103.461 18.161C104.312 18.161 104.496 17.517 104.726 16.919C104.795 16.735 104.864 16.597 104.979 16.321C104.519 15.539 104.128 15.424 103.116 15.677Z" fill="#FF3A2A"/>
</svg>
