<svg width="624" height="130" viewBox="0 0 624 130" fill="none" xmlns="http://www.w3.org/2000/svg">
<path d="M32.9015 36.212C40.2935 35.156 47.6855 34.232 54.9455 33.044C56.5295 32.78 59.1695 31.724 59.1695 31.064C59.0375 28.16 61.6775 28.028 62.8655 26.576C63.6575 25.652 64.4495 24.2 64.1855 23.144C63.9215 22.22 62.6015 21.428 61.5455 20.636C61.0175 20.372 60.2255 20.372 59.5655 20.504C45.8375 20.636 32.2415 22.22 19.0415 26.048C17.0615 26.576 15.0815 27.236 13.6295 28.556C12.4415 29.612 11.5175 31.724 11.7815 33.176C11.7815 34.364 13.6295 35.816 14.9495 36.344C16.6655 37.004 18.7775 36.872 20.8895 37.136C20.4935 43.076 20.2295 48.488 19.8335 53.9C19.7015 54.56 19.1735 55.484 18.5135 55.748C16.1375 56.804 16.9295 59.048 16.9295 60.5C14.6855 61.688 12.7055 62.612 10.9895 63.932C10.0655 64.724 9.66947 66.308 9.00947 67.496C10.3295 68.156 11.5175 69.08 12.7055 69.212C14.8175 69.344 16.9295 68.948 19.3055 68.816C19.5695 74.228 19.8335 79.244 20.0975 84.128C17.9855 84.656 16.5335 84.92 15.0815 85.448C10.5935 87.032 10.1975 88.88 13.6295 92.84C13.2335 93.104 12.9695 93.5 12.5735 93.896C10.3295 96.932 10.9895 98.78 14.5535 99.44C16.6655 99.704 18.7775 99.704 21.0215 99.44C27.6215 98.516 34.3535 97.196 40.9535 96.14C45.5735 95.48 49.4015 93.632 52.1735 89.672C53.6255 87.428 53.6255 86.108 51.2495 84.92C49.7975 84.392 48.3455 83.996 46.8935 83.996C40.2935 83.6 33.8255 83.336 26.5655 83.072C26.8295 78.056 27.0935 73.04 27.3575 68.024C34.2215 65.912 41.3495 66.968 47.5535 63.536C44.5175 55.748 44.5175 55.748 37.1255 54.692C34.0895 54.296 31.0535 54.032 27.4895 53.636C27.7535 48.224 28.0175 42.68 28.1495 36.872C29.9975 36.608 31.4495 36.476 32.9015 36.212ZM103.981 24.728C101.737 39.116 99.3614 53.636 97.1174 68.024C96.9854 69.08 96.5894 70.004 96.1934 71.984C95.1374 69.476 94.4774 67.892 93.6854 66.308C90.6494 59.444 87.4814 52.58 84.4454 45.848C82.2014 40.964 78.3734 36.872 78.5054 31.064C78.5054 28.292 76.5254 27.368 74.0174 28.292C72.6974 28.82 72.0374 28.688 70.9814 28.028C69.5294 27.104 68.2094 27.896 67.5494 29.348C67.0214 30.668 66.6254 32.12 66.3614 33.44C62.2694 53.108 60.1574 73.04 58.7054 93.104C58.5734 95.216 58.5734 97.328 58.5734 99.44C58.5734 104.324 62.9294 102.212 65.1734 103.532C66.8894 104.456 68.6054 104.192 69.7934 102.608C70.3214 101.948 70.5854 101.156 70.7174 100.232C71.1134 98.384 71.2454 96.668 71.5094 94.82C73.2254 80.96 75.0734 67.1 76.7894 53.372C76.9214 52.58 77.3174 51.92 77.8454 50.864C81.8054 61.16 85.6334 70.928 89.4614 80.696C92.2334 87.824 95.0054 94.952 97.7774 102.212C98.4374 103.928 99.7574 104.984 101.605 104.984C103.717 104.984 105.037 103.796 105.697 101.816C106.093 100.496 106.357 99.044 106.621 97.592C109.789 81.224 112.825 64.724 116.257 48.224C117.709 40.568 119.821 33.044 121.537 25.388C121.933 23.672 122.065 21.56 121.405 20.108C120.613 18.788 118.633 17.996 117.445 17.204C116.785 16.016 116.389 14.564 115.465 14.168C113.881 13.64 112.825 14.96 112.297 16.28C111.637 17.6 111.109 18.92 110.581 20.108C105.565 19.976 104.509 20.636 103.981 24.728ZM95.5334 79.772L94.6094 80.168L90.2534 67.364L91.0454 67.1C92.6294 71.324 95.9294 74.888 95.5334 79.772ZM166.584 39.512C159.192 52.052 152.064 64.724 144.408 77.132C139.392 85.052 133.848 92.576 130.812 101.552L134.112 103.532C131.868 104.588 130.284 105.248 128.7 106.172C124.344 108.68 119.856 111.056 115.5 113.828C114.444 114.488 113.52 116.468 113.784 117.392C114.18 119.24 116.16 118.844 117.612 118.448C120.252 117.788 123.024 116.864 125.664 116.204C127.908 120.032 128.04 120.164 132.264 118.976C132.924 118.844 133.584 118.712 134.244 118.448C149.82 113.3 166.056 111.452 182.424 109.868C184.536 109.736 186.648 109.868 188.1 107.36L185.592 103.928C187.308 103.268 189.156 103.268 190.344 102.344C192.324 100.76 190.08 99.044 189.816 97.46C189.816 97.196 189.816 97.064 189.948 96.932C190.608 94.82 191.004 92.444 188.628 91.256C186.912 90.2 184.668 89.54 182.688 89.408C173.712 89.144 164.868 89.276 155.892 89.012C153.384 89.012 151.008 88.352 147.972 87.824C149.424 85.712 150.48 84.26 151.404 82.676C161.964 67.496 172.524 52.316 182.952 37.004C184.404 35.024 185.724 32.912 186.912 30.668C189.816 25.124 187.308 21.164 181.104 21.428C179.124 21.56 177.144 21.956 175.164 22.22C167.904 23.408 160.512 24.86 153.12 25.784C144.54 26.84 135.696 27.5 127.116 28.556C125.796 28.82 124.212 29.612 123.552 30.668C122.76 32.12 123.948 33.44 125.268 34.364C125.664 34.628 126.192 35.024 126.588 35.42L121.176 39.116C123.024 40.172 124.212 40.7 125.004 41.096C124.872 42.416 124.608 43.736 124.344 45.584C126.852 45.716 129.096 46.112 131.076 45.848C137.544 44.66 144.012 43.34 150.48 41.888C155.892 40.7 161.304 39.116 166.98 37.664C166.716 38.588 166.716 39.116 166.584 39.512ZM141.108 98.12L145.464 91.124C148.632 91.52 151.272 91.916 154.044 92.048C156.816 92.18 159.588 92.048 163.152 92.048C156.42 96.14 146.256 98.912 141.108 98.12ZM227.282 32.516C219.362 25.916 208.274 25.916 201.674 32.912C197.846 36.74 194.942 41.492 193.886 47.036C191.642 58.124 195.338 67.496 203.258 75.284C211.046 83.072 221.21 82.544 228.338 74.096C233.618 68.024 235.862 60.764 235.994 53.372C235.994 44.396 232.826 37.268 227.282 32.516ZM217.514 58.784C213.95 55.88 213.818 52.184 217.25 47.036C220.946 50.468 221.078 54.164 217.514 58.784ZM210.518 58.388C208.406 53.108 208.802 48.884 212.366 45.056C211.838 49.28 211.178 53.504 210.518 58.388ZM219.89 44C223.058 44 223.058 44 223.586 48.488L219.89 44ZM306.082 48.488C304.63 48.884 303.442 49.28 302.122 49.544C298.03 50.6 293.806 51.392 289.714 52.58C286.81 53.504 286.678 54.692 287.866 57.464C288.922 59.708 290.506 60.632 292.882 60.5C297.634 60.368 302.386 60.5 307.402 60.5C307.666 61.82 307.93 63.14 308.194 64.592C310.438 78.452 312.55 92.312 314.926 106.172C315.454 109.34 316.642 110.66 318.754 110.396C320.866 110.264 321.79 108.416 321.394 104.984C321.394 104.72 321.262 104.324 321.262 104.06C319.942 93.104 318.622 82.016 317.302 71.06C316.906 67.232 316.642 63.272 316.246 59.576C317.038 59.18 317.302 58.916 317.566 58.916C323.242 57.86 328.918 56.936 332.086 51.128C332.218 50.732 332.746 50.468 333.142 50.204C328.126 46.112 327.994 45.98 321.658 46.508C319.546 46.64 317.434 46.772 314.926 47.036C313.87 41.096 312.946 35.288 312.022 29.48C321.79 27.5 331.162 25.52 340.534 23.672C343.174 23.144 346.078 23.012 348.85 22.484C350.83 22.088 352.546 20.9 352.81 18.524C352.942 16.544 351.886 15.224 350.038 14.3C349.246 13.904 348.19 13.376 347.794 12.584C346.342 10.34 344.23 9.944 341.854 9.944C337.366 9.944 332.878 9.67999 328.39 10.076C316.51 10.868 304.762 11.792 292.882 12.716C291.034 12.98 289.318 13.376 287.602 14.168C286.81 14.564 285.754 15.884 285.754 16.676C285.754 17.468 286.81 18.656 287.734 19.052C290.638 20.372 293.542 21.428 296.578 22.484C296.314 22.748 296.182 23.144 295.918 23.276C294.07 24.332 292.882 25.784 293.806 28.16C294.598 30.272 296.578 30.668 298.69 30.668C300.538 30.536 302.254 30.536 304.498 30.536C305.026 36.476 305.554 42.416 306.082 48.488ZM386.542 87.296C385.486 80.036 384.43 72.908 382.846 65.78C380.074 54.428 377.038 43.076 373.87 31.856C373.078 28.82 371.758 25.916 370.042 23.276C367.402 19.58 363.31 19.712 360.406 23.144C359.218 24.596 358.294 26.18 357.634 27.764C347.074 50.996 337.306 74.492 328.858 98.384C328.33 99.968 328.33 101.816 328.198 103.136C330.706 104.06 332.686 104.852 334.666 105.512C335.722 105.908 336.91 106.04 337.966 106.04C341.134 106.04 344.302 106.04 347.47 105.644C359.614 103.796 371.89 101.948 384.166 99.968C386.674 99.572 389.05 98.648 391.558 97.856C391.162 97.064 391.03 96.668 390.898 96.536C389.314 95.876 387.862 95.348 386.674 94.82C386.674 92.18 386.938 89.672 386.542 87.296ZM349.186 85.448C352.75 81.62 355.258 77.132 357.238 72.38C360.142 65.648 363.046 58.784 365.95 51.92C366.478 50.6 367.138 49.28 368.062 47.036C372.022 61.424 375.718 75.02 379.414 88.748L345.226 92.048C346.81 89.276 347.602 87.032 349.186 85.448ZM367.402 96.14C372.022 95.084 376.642 92.84 381.394 93.236C381.394 93.764 381.394 94.424 381.394 94.952L367.402 96.14ZM426.599 64.196C429.107 59.972 432.011 55.88 434.255 51.524C435.971 47.96 437.423 44.132 437.951 40.304C438.611 35.552 435.707 32.12 431.087 30.8C429.503 30.404 427.919 30.14 426.203 30.008C422.771 29.876 419.207 29.612 415.775 29.48C411.155 29.348 410.759 28.82 410.363 24.332C409.967 19.58 409.571 14.828 409.175 10.076L404.159 9.548V24.2H403.763C403.235 21.824 402.575 19.316 402.047 16.94L400.991 17.072C401.519 21.164 401.915 25.256 402.311 28.952C397.427 30.008 393.203 30.932 388.979 32.252C386.867 32.78 385.679 34.496 385.943 36.872C386.207 38.72 387.659 40.304 389.639 40.436C392.939 40.964 396.503 41.228 399.935 41.492C401.519 41.624 403.103 41.492 404.951 41.492C409.571 67.364 410.891 93.368 417.623 118.58C423.035 115.148 423.167 110.66 422.507 105.512C421.319 96.8 420.791 88.088 419.999 79.376C419.867 78.32 419.999 77.264 419.999 75.812C421.055 76.34 421.583 76.604 422.111 76.868C433.991 83.204 445.739 89.672 457.487 95.876C461.843 98.252 466.859 99.44 471.743 99.176C473.327 91.652 468.443 89.012 463.031 86.768C461.843 86.24 460.655 85.712 459.467 85.184C450.095 80.96 440.723 76.604 431.483 72.248C429.107 71.192 426.995 69.608 424.619 68.288C425.411 66.572 425.939 65.384 426.599 64.196ZM424.487 39.248C426.467 43.868 423.695 53.504 418.019 61.424C417.095 54.164 416.171 47.564 415.247 40.172L424.487 39.248ZM454.828 108.284C461.56 106.304 468.424 104.456 475.156 102.344C479.38 101.024 483.34 99.176 487.564 97.46C487.828 97.328 487.96 96.668 488.488 96.008L483.868 95.612C485.056 92.312 481.888 92.444 480.304 91.388C481.096 90.332 481.756 89.54 482.944 88.22H476.74C476.344 83.864 476.08 80.036 475.684 76.076C475.288 73.304 474.496 70.532 474.496 67.892C474.628 56.804 475.024 45.716 475.288 34.628C475.42 30.404 475.42 30.14 479.776 29.084C480.832 28.952 481.756 28.952 482.68 28.688C485.716 27.764 488.752 26.972 491.656 25.784C493.504 24.992 495.088 23.672 494.164 21.164C493.9 21.032 493.504 20.768 493.24 20.768C491.656 20.768 489.94 20.768 488.356 20.768C485.32 17.336 484.792 16.94 481.756 17.732C476.08 19.448 470.404 21.296 464.86 23.276C462.088 24.332 460.9 26.972 461.428 30.14C461.824 33.44 464.332 32.516 466.444 32.78C466.708 32.912 466.84 33.176 467.5 33.572C466.18 52.976 464.86 72.776 463.408 92.708C462.22 93.368 460.636 93.896 459.316 94.688C457.6 95.744 456.28 97.196 457.072 99.176C457.6 100.496 459.052 101.552 460.108 102.74L454.168 106.7L454.828 108.284ZM544.839 87.296C543.783 80.036 542.727 72.908 541.143 65.78C538.371 54.428 535.335 43.076 532.167 31.856C531.375 28.82 530.055 25.916 528.339 23.276C525.699 19.58 521.607 19.712 518.703 23.144C517.515 24.596 516.591 26.18 515.931 27.764C505.371 50.996 495.603 74.492 487.155 98.384C486.627 99.968 486.627 101.816 486.495 103.136C489.003 104.06 490.983 104.852 492.963 105.512C494.019 105.908 495.207 106.04 496.263 106.04C499.431 106.04 502.599 106.04 505.767 105.644C517.911 103.796 530.187 101.948 542.463 99.968C544.971 99.572 547.347 98.648 549.855 97.856C549.459 97.064 549.327 96.668 549.195 96.536C547.611 95.876 546.159 95.348 544.971 94.82C544.971 92.18 545.235 89.672 544.839 87.296ZM507.483 85.448C511.047 81.62 513.555 77.132 515.535 72.38C518.439 65.648 521.343 58.784 524.247 51.92C524.775 50.6 525.435 49.28 526.359 47.036C530.319 61.424 534.015 75.02 537.711 88.748L503.523 92.048C505.107 89.276 505.899 87.032 507.483 85.448ZM525.699 96.14C530.319 95.084 534.939 92.84 539.691 93.236C539.691 93.764 539.691 94.424 539.691 94.952L525.699 96.14ZM552.371 118.58C551.975 123.332 554.219 124.916 558.575 122.936C559.895 122.276 561.083 121.352 562.139 120.296C564.779 117.656 567.551 115.016 569.927 111.98C578.111 101.42 586.295 90.86 594.347 80.168C596.063 77.792 597.911 75.284 599.231 72.644C602.267 66.968 600.419 62.348 594.215 60.236C590.387 59.048 586.427 58.388 582.599 57.332C579.035 56.408 575.339 55.484 571.115 54.428C572.699 52.448 573.755 50.996 574.943 49.676C580.355 43.208 585.899 36.872 591.311 30.536C593.819 27.632 596.063 24.596 598.307 21.428C599.363 19.844 600.683 18.128 598.967 15.884C595.403 16.544 592.367 18.392 589.463 20.636C584.183 25.124 578.639 29.348 573.359 33.968C567.947 38.456 562.667 43.208 557.387 48.092C554.747 50.468 552.371 53.24 550.127 56.144C546.167 61.556 547.223 65.78 553.427 68.42C558.047 70.532 562.931 71.852 567.947 73.304C571.115 74.228 574.547 74.624 577.979 75.416C577.847 75.944 577.847 76.34 577.583 76.604C576.791 77.66 575.867 78.584 575.075 79.64C566.363 89.408 557.519 98.912 550.787 110.264C549.467 112.244 547.619 114.092 548.147 117.26L552.239 117.524C552.371 117.92 552.371 118.184 552.371 118.58ZM555.143 61.424L558.971 57.2L565.571 64.988L555.143 61.424ZM596.751 96.668C593.583 97.46 591.471 98.912 590.811 102.212C590.283 105.38 591.603 107.756 594.507 109.472C595.431 110 595.695 111.452 596.355 112.508C597.015 112.112 597.807 110.924 598.731 110.924C603.615 110.924 604.671 107.228 605.991 103.796C606.387 102.74 606.783 101.948 607.443 100.364C604.803 95.876 602.559 95.216 596.751 96.668Z" fill="#FF3A2A"/>
</svg>
